<mxfile host="app.diagrams.net" modified="2023-08-07T09:30:56.069Z" agent="Mozilla/5.0 (Windows NT 10.0; Win64; x64) AppleWebKit/537.36 (KHTML, like Gecko) Chrome/115.0.0.0 Safari/537.36" etag="_3W6LKNVuPlsbv_xDGfz" version="21.6.6" type="github">
  <diagram name="模板仓库" id="Vcu2Aqr-mU0hvWA8rodl">
    <mxGraphModel dx="1754" dy="531" grid="1" gridSize="10" guides="1" tooltips="1" connect="1" arrows="1" fold="1" page="1" pageScale="1" pageWidth="827" pageHeight="1169" math="0" shadow="0">
      <root>
        <mxCell id="0" />
        <mxCell id="1" parent="0" />
        <mxCell id="QC23TzgjcBWWYO4IGFXs-4" value="" style="rounded=1;whiteSpace=wrap;html=1;" vertex="1" parent="1">
          <mxGeometry x="-180" y="270" width="250" height="80" as="geometry" />
        </mxCell>
        <mxCell id="QC23TzgjcBWWYO4IGFXs-1" value="模板仓库列表" style="rounded=0;whiteSpace=wrap;html=1;" vertex="1" parent="1">
          <mxGeometry x="220" y="200" width="120" height="60" as="geometry" />
        </mxCell>
        <mxCell id="QC23TzgjcBWWYO4IGFXs-2" value="git源" style="rounded=0;whiteSpace=wrap;html=1;" vertex="1" parent="1">
          <mxGeometry x="-80" y="200" width="120" height="60" as="geometry" />
        </mxCell>
        <mxCell id="QC23TzgjcBWWYO4IGFXs-3" value="char源" style="rounded=0;whiteSpace=wrap;html=1;" vertex="1" parent="1">
          <mxGeometry x="-80" y="280" width="120" height="60" as="geometry" />
        </mxCell>
      </root>
    </mxGraphModel>
  </diagram>
</mxfile>
